<svg xmlns="http://www.w3.org/2000/svg" viewBox="0 0 15.45 26.7"><g id="Layer_2" data-name="Layer 2"><g id="Layer_1-2" data-name="Layer 1"><path d="M9.6,26.7h-5a.85.85,0,0,1-.85-.85V16.7H.85A.85.85,0,0,1,0,15.85v-5A.85.85,0,0,1,.85,10h2.9V7.1A7.11,7.11,0,0,1,10.85,0H14.6a.85.85,0,0,1,.85.85v5a.85.85,0,0,1-.85.85H10.85a.4.4,0,0,0-.4.4V10H14.6a.84.84,0,0,1,.67.33.82.82,0,0,1,.15.73l-1.25,5a.84.84,0,0,1-.82.64h-2.9v9.15A.85.85,0,0,1,9.6,26.7ZM5.45,25h3.3V15.85A.85.85,0,0,1,9.6,15h3.09l.82-3.3H9.6a.85.85,0,0,1-.85-.85V7.1A2.1,2.1,0,0,1,10.85,5h2.9V1.7h-2.9a5.4,5.4,0,0,0-5.4,5.4v3.75a.85.85,0,0,1-.85.85H1.7V15H4.6a.85.85,0,0,1,.85.85Z"/></g></g></svg>