<svg xmlns="http://www.w3.org/2000/svg" viewBox="0 0 26.88 26.88"><defs><style>.cls-1{fill:#050505;}</style></defs><g id="Layer_2" data-name="Layer 2"><g id="Layer_1-2" data-name="Layer 1"><path class="cls-1" d="M17.19,26.88H9.69C2.9,26.88,0,24,0,17.19V9.69C0,2.9,2.9,0,9.69,0h7.5C24,0,26.88,2.9,26.88,9.69v7.5C26.88,24,24,26.88,17.19,26.88Zm-7.5-25c-5.76,0-7.81,2.05-7.81,7.81v7.5C1.88,23,3.93,25,9.69,25h7.5C23,25,25,23,25,17.19V9.69C25,3.92,23,1.87,17.19,1.87H9.69Zm3.75,16.87a5.32,5.32,0,1,1,5.31-5.31A5.32,5.32,0,0,1,13.44,18.75Zm0-8.75A3.44,3.44,0,0,0,10,13.44h0A3.44,3.44,0,1,0,13.44,10Zm6.25-2.19a1.12,1.12,0,0,1-.48-.1,1.36,1.36,0,0,1-.41-.26A1.65,1.65,0,0,1,18.52,7a1.1,1.1,0,0,1-.08-.48,1.26,1.26,0,0,1,.08-.47,1.74,1.74,0,0,1,.28-.41A.9.9,0,0,1,19,5.53a.94.94,0,0,1,.22-.12.73.73,0,0,1,.24-.07,1.21,1.21,0,0,1,1.39.75,1.18,1.18,0,0,1,0,1,1.59,1.59,0,0,1-.26.41,1.54,1.54,0,0,1-.42.26A1.1,1.1,0,0,1,19.69,7.81Z"/></g></g></svg>