<svg xmlns="http://www.w3.org/2000/svg" viewBox="0 0 18.391 18.391">
  <path d="M9.2 16.021l3.4-3.672A5.482 5.482 0 0012.6 5a4.577 4.577 0 00-6.812 0 5.482 5.482 0 000 7.344zm0 2.1L4.815 13.4a7.049 7.049 0 010-9.442 5.885 5.885 0 018.761 0 7.049 7.049 0 010 9.442zm0-7.958a1.433 1.433 0 001.377-1.484A1.433 1.433 0 009.2 7.193a1.433 1.433 0 00-1.381 1.484A1.433 1.433 0 009.2 10.16zm0 1.484a2.866 2.866 0 01-2.758-2.97A2.866 2.866 0 019.2 5.709a2.866 2.866 0 012.753 2.967A2.866 2.866 0 019.2 11.644z" data-name="Path 38274"/>
</svg>
