<svg xmlns="http://www.w3.org/2000/svg" viewBox="0 0 512 383.99"><defs><style>.cls-1{fill:#afbeba;}</style></defs><g id="Layer_2" data-name="Layer 2"><g id="Capa_1" data-name="Capa 1"><path class="cls-1" d="M316.33,131.65a10.67,10.67,0,1,0-15.08,15.09,64,64,0,1,1-90.5,90.49,10.67,10.67,0,1,0-15.08,15.09A85.32,85.32,0,1,0,316.33,131.65Zm-45.46-23.53A84.49,84.49,0,0,0,170.67,192a83.85,83.85,0,0,0,1.49,14.87,10.68,10.68,0,0,0,10.48,8.81,9.23,9.23,0,0,0,1.87-.17,10.67,10.67,0,0,0,8.64-12.35A62,62,0,0,1,192,192a63.19,63.19,0,0,1,75.16-62.86,10.66,10.66,0,0,0,3.71-21Zm238.59,77c-2.41-2.85-60.11-70.2-139.71-111.44a10.67,10.67,0,0,0-9.79,19C421.27,124.36,470.25,173.9,487,192c-25.43,27.54-125.51,128-231,128-35.8,0-71.87-8.64-107.26-25.71a10.66,10.66,0,0,0-9.26,19.2C177.77,332,217,341.32,256,341.32c131.44,0,248.56-136.62,253.49-142.44A10.68,10.68,0,0,0,509.46,185.09ZM326,54.94c-24.28-8.17-47.83-12.29-70-12.29C124.57,42.65,7.45,179.27,2.52,185.09a10.68,10.68,0,0,0-.6,13c1.47,2.11,36.74,52.18,97.86,92.77a10.45,10.45,0,0,0,5.89,1.8,10.68,10.68,0,0,0,5.88-19.57c-44.88-29.84-75.6-65.87-87.1-80.53C49,165.89,149.74,64,256,64c19.86,0,41.13,3.76,63.19,11.16a10.51,10.51,0,0,0,13.5-6.7A10.64,10.64,0,0,0,326,54.94ZM444.87,3.12a10.68,10.68,0,0,0-15.09,0L67.12,365.79A10.66,10.66,0,0,0,82.2,380.87L444.87,18.2A10.67,10.67,0,0,0,444.87,3.12Z"/></g></g></svg>