<svg xmlns="http://www.w3.org/2000/svg" viewBox="0 0 475.46 355.71"><g id="Layer_2" data-name="Layer 2"><g id="Layer_1-2" data-name="Layer 1"><path d="M169.36,355.71A245.6,245.6,0,0,1,36.17,316.76L0,293.49l42.73,4.93a162.38,162.38,0,0,0,19,1,156.12,156.12,0,0,0,76.81-19.87,93.13,93.13,0,0,1-60.83-60.34l-4.91-15.32,9.73,1.46a93,93,0,0,1-34.41-72.4V114.85l14.87,8.3.24.13A93.18,93.18,0,0,1,48.59,73.15a92.17,92.17,0,0,1,12.69-47l7.29-12.5,9.12,11.24a227,227,0,0,0,152.09,82.41c-.23-2.74-.35-5.45-.35-8.1A93.3,93.3,0,0,1,386.69,31.33a154.5,154.5,0,0,0,44.44-17.78L453.84,0l-8.06,25.19a92.3,92.3,0,0,1-12.27,24.73q5.07-1.81,10.12-4l31.83-13.72L455.83,60.78A187.83,187.83,0,0,1,416.07,103c0,2,0,4,0,6,0,59.88-23.14,120.47-63.49,166.23a233.82,233.82,0,0,1-77.51,58.07C243,348.15,207.37,355.71,169.36,355.71ZM81.88,318.27a226.87,226.87,0,0,0,87.48,17.44c141.94,0,226.75-115.29,226.75-226.75,0-3.53,0-6.86-.23-10.11l-.4-5.52L400,90.06a167.45,167.45,0,0,0,17.61-14.83,166.85,166.85,0,0,1-16.83,2.71l-45.42,4.89,39.22-23.42a73.79,73.79,0,0,0,17.84-14.89,173.77,173.77,0,0,1-27.06,7.53l-5.41,1-3.77-4A72.52,72.52,0,0,0,322.64,26a73.29,73.29,0,0,0-73.21,73.21,83.75,83.75,0,0,0,1.85,17l2.65,12.7-13-.67A247.27,247.27,0,0,1,72.5,49.39a73.47,73.47,0,0,0,28.73,84.73l29.47,19.65-35.39-1.33a94.13,94.13,0,0,1-25.7-4.63,73.56,73.56,0,0,0,57.17,57l42.47,8.61L127.3,224.26a97.41,97.41,0,0,1-24.22,3.15,73.6,73.6,0,0,0,62.11,36.42l28,.59-22,17.28A175.4,175.4,0,0,1,81.88,318.27Z"/></g></g></svg>